<!-- icon666.com - MILLIONS vector ICONS FREE --><svg viewBox="0 0 64 64" xmlns="http://www.w3.org/2000/svg"><g id="Layer_74" data-name="Layer 74"><path d="m36.09 17h-20.09a2.61 2.61 0 0 0 -2.6 2.6v28.4a2.61 2.61 0 0 0 2.6 2.6h20.09a2.61 2.61 0 0 0 2.6-2.6v-28.4a2.61 2.61 0 0 0 -2.6-2.6zm1.4 31a1.4 1.4 0 0 1 -1.4 1.4h-20.09a1.4 1.4 0 0 1 -1.4-1.4v-28.4a1.4 1.4 0 0 1 1.4-1.4h20.09a1.4 1.4 0 0 1 1.4 1.4z"></path><path d="m34.84 20.25h-17.58a.6.6 0 0 0 -.6.6v23.23a.6.6 0 0 0 .6.6h17.58a.6.6 0 0 0 .6-.6v-23.23a.6.6 0 0 0 -.6-.6zm-.6 23.23h-16.38v-22h16.38z"></path><path d="m27 46.66h-1.8a.6.6 0 1 0 0 1.2h1.8a.6.6 0 0 0 0-1.2z"></path><path d="m42.62 10.46a.6.6 0 0 0 0 1.2 9.76 9.76 0 0 1 9.72 9.77.59.59 0 0 0 .6.59.61.61 0 0 0 .6-.61 11 11 0 0 0 -10.92-10.95z"></path><path d="m42.62 13.36a.6.6 0 0 0 -.6.6.6.6 0 0 0 .6.6 6.86 6.86 0 0 1 6.82 6.87.59.59 0 0 0 .56.57.61.61 0 0 0 .6-.61 8.06 8.06 0 0 0 -7.98-8.03z"></path><path d="m42.62 16.26a.6.6 0 0 0 0 1.2 4 4 0 0 1 3.93 4 .59.59 0 0 0 .6.59.61.61 0 0 0 .6-.61 5.16 5.16 0 0 0 -5.13-5.18z"></path><path d="m42.6 19.16a2.25 2.25 0 1 0 2.24 2.25 2.25 2.25 0 0 0 -2.24-2.25zm0 3.3a1.05 1.05 0 1 1 1-1.05 1 1 0 0 1 -1 1.05z"></path><path d="m50 60.6h-36a10.62 10.62 0 0 1 -10.6-10.6v-36a10.62 10.62 0 0 1 10.6-10.6h36a10.62 10.62 0 0 1 10.6 10.6v36a10.62 10.62 0 0 1 -10.6 10.6zm-36-56a9.41 9.41 0 0 0 -9.4 9.4v36a9.41 9.41 0 0 0 9.4 9.4h36a9.41 9.41 0 0 0 9.4-9.4v-36a9.41 9.41 0 0 0 -9.4-9.4z"></path></g></svg>