<!-- icon666.com - MILLIONS vector ICONS FREE --><svg id="counter" enable-background="new 0 0 300 300" viewBox="0 0 300 300" xmlns="http://www.w3.org/2000/svg"><g><path d="m274 198h-12v-48h12c2.211 0 4-1.791 4-4s-1.789-4-4-4h-12.685c-1.115-2.355-3.498-4-6.272-4h-14.086c-2.775 0-5.157 1.645-6.272 4h-24.717c-11.466-21.401-34.037-36-59.967-36s-48.501 14.599-59.967 36h-20.719c-1.115-2.355-3.498-4-6.272-4h-14.086c-2.775 0-5.157 1.645-6.272 4h-16.685c-2.211 0-4 1.791-4 4v56c0 2.209 1.789 4 4 4h16.685c1.115 2.355 3.498 4 6.272 4h14.086c2.775 0 5.157-1.645 6.272-4h20.717c11.466 21.401 34.037 36 59.967 36s48.501-14.599 59.967-36h24.717c1.115 2.355 3.498 4 6.272 4h14.086c2.775 0 5.157-1.645 6.272-4h12.687c2.211 0 4-1.791 4-4s-1.789-4-4-4zm-244-48h12v48h-12zm32 52h-12v-56h12zm8-4v-48h16.456c-2.834 7.476-4.456 15.543-4.456 24s1.622 16.524 4.456 24zm80 36c-33.086 0-60-26.916-60-60s26.914-60 60-60 60 26.916 60 60-26.914 60-60 60zm63.544-84h20.456v48h-20.456c2.834-7.476 4.456-15.543 4.456-24s-1.622-16.524-4.456-24zm40.456 52h-12v-56h12z"></path><path d="m150 122c-28.672 0-52 23.326-52 52s23.328 52 52 52 52-23.326 52-52-23.328-52-52-52zm0 96c-24.262 0-44-19.738-44-44s19.738-44 44-44 44 19.738 44 44-19.738 44-44 44z"></path><path d="m182 154h-64c-2.211 0-4 1.791-4 4v20c0 2.209 1.789 4 4 4h64c2.211 0 4-1.791 4-4v-20c0-2.209-1.789-4-4-4zm-4 20h-56v-12h56z"></path><path d="m150 186c-6.617 0-12 5.383-12 12s5.383 12 12 12 12-5.383 12-12-5.383-12-12-12zm0 16c-2.207 0-4-1.795-4-4s1.793-4 4-4 4 1.795 4 4-1.793 4-4 4z"></path><path d="m172 187.47c-2.502 0-4.53 2.028-4.53 4.53 0 2.501 2.028 4.53 4.53 4.53 2.501 0 4.529-2.028 4.529-4.53s-2.028-4.53-4.529-4.53z"></path><path d="m128 187.47c-2.502 0-4.53 2.028-4.53 4.53 0 2.501 2.028 4.53 4.53 4.53 2.501 0 4.529-2.028 4.529-4.53s-2.028-4.53-4.529-4.53z"></path><path d="m132 148.53c2.501 0 4.529-2.028 4.529-4.53s-2.028-4.53-4.529-4.53c-2.502 0-4.53 2.028-4.53 4.53 0 2.501 2.028 4.53 4.53 4.53z"></path><path d="m144 148.53c2.501 0 4.529-2.028 4.529-4.53s-2.028-4.53-4.529-4.53c-2.502 0-4.53 2.028-4.53 4.53 0 2.501 2.028 4.53 4.53 4.53z"></path><path d="m156 148.53c2.501 0 4.529-2.028 4.529-4.53s-2.028-4.53-4.529-4.53c-2.502 0-4.53 2.028-4.53 4.53 0 2.501 2.028 4.53 4.53 4.53z"></path><path d="m168 148.53c2.501 0 4.529-2.028 4.529-4.53s-2.028-4.53-4.529-4.53c-2.502 0-4.53 2.028-4.53 4.53 0 2.501 2.028 4.53 4.53 4.53z"></path><circle cx="98" cy="62" r="4"></circle><path d="m238 90c6.617 0 12-5.383 12-12s-5.383-12-12-12-12 5.383-12 12 5.383 12 12 12zm0-16c2.207 0 4 1.795 4 4s-1.793 4-4 4-4-1.795-4-4 1.793-4 4-4z"></path><path d="m57.516 98.484c.781.781 1.805 1.172 2.828 1.172s2.047-.391 2.828-1.172l2.828-2.828 2.828 2.828c.781.781 1.805 1.172 2.828 1.172s2.047-.391 2.828-1.172c1.562-1.562 1.562-4.094 0-5.656l-2.828-2.828 2.828-2.828c1.562-1.562 1.562-4.094 0-5.656s-4.094-1.562-5.656 0l-2.828 2.828-2.828-2.828c-1.562-1.562-4.094-1.562-5.656 0s-1.562 4.094 0 5.656l2.828 2.828-2.828 2.828c-1.563 1.563-1.563 4.094 0 5.656z"></path><path d="m150 98c2.211 0 4-1.791 4-4v-12c0-2.209-1.789-4-4-4s-4 1.791-4 4v12c0 2.209 1.789 4 4 4z"></path><path d="m162 98c1.023 0 2.047-.391 2.828-1.172l4-4c1.562-1.562 1.562-4.094 0-5.656s-4.094-1.562-5.656 0l-4 4c-1.562 1.562-1.562 4.094 0 5.656.781.781 1.805 1.172 2.828 1.172z"></path><path d="m135.172 96.828c.781.781 1.805 1.172 2.828 1.172s2.047-.391 2.828-1.172c1.562-1.562 1.562-4.094 0-5.656l-4-4c-1.562-1.562-4.094-1.562-5.656 0s-1.562 4.094 0 5.656z"></path></g></svg>