<svg width="48" height="48" viewBox="0 0 48 48" fill="none" xmlns="http://www.w3.org/2000/svg">
<path d="M33.9218 12.3572C33.9218 10.3945 33.3398 8.47594 32.2494 6.84406C31.1591 5.21218 29.6092 3.94028 27.796 3.18921C25.9827 2.43814 23.9875 2.24162 22.0626 2.62452C20.1376 3.00741 18.3695 3.95251 16.9817 5.34031C15.5939 6.72811 14.6488 8.49628 14.2659 10.4212C13.883 12.3461 14.0795 14.3414 14.8306 16.1546C15.5816 17.9679 16.8535 19.5177 18.4854 20.6081C20.1173 21.6985 22.0359 22.2805 23.9985 22.2805C26.6294 22.2775 29.1517 21.231 31.012 19.3707C32.8724 17.5103 33.9188 14.9881 33.9218 12.3572ZM17.0186 17.2046L17.4236 16.9705C17.5817 16.8742 17.6959 16.7199 17.7417 16.5405C17.7875 16.3611 17.7613 16.1709 17.6687 16.0106C17.5762 15.8503 17.4245 15.7325 17.2462 15.6826C17.068 15.6326 16.8772 15.6544 16.7148 15.7432L16.3098 15.9761C15.8767 15.0609 15.6122 14.0751 15.5289 13.066H15.9991C16.1871 13.066 16.3674 12.9913 16.5003 12.8584C16.6332 12.7254 16.7079 12.5451 16.7079 12.3572C16.7079 12.1692 16.6332 11.9889 16.5003 11.856C16.3674 11.723 16.1871 11.6483 15.9991 11.6483H15.5289C15.6131 10.6391 15.8786 9.65324 16.3126 8.73818L16.7176 8.97108C16.798 9.01841 16.887 9.04926 16.9794 9.06184C17.0719 9.07442 17.1659 9.06847 17.256 9.04434C17.3461 9.02021 17.4305 8.97839 17.5043 8.9213C17.578 8.86422 17.6397 8.79302 17.6857 8.71186C17.7328 8.63142 17.7634 8.54243 17.7759 8.45005C17.7884 8.35767 17.7824 8.26374 17.7583 8.17369C17.7342 8.08365 17.6924 7.99929 17.6354 7.9255C17.5785 7.85171 17.5074 7.78996 17.4264 7.74383L17.0214 7.50972C17.6007 6.6785 18.3227 5.95651 19.1539 5.37722L19.388 5.78225C19.4843 5.94038 19.6386 6.05456 19.818 6.10037C19.9974 6.14618 20.1876 6.11998 20.3479 6.02739C20.5082 5.9348 20.626 5.78315 20.6759 5.60488C20.7259 5.42661 20.7041 5.23587 20.6153 5.07344L20.3824 4.66841C21.2974 4.23436 22.2833 3.96887 23.2925 3.88467V4.35775C23.2925 4.54574 23.3672 4.72603 23.5001 4.85895C23.6331 4.99188 23.8134 5.06656 24.0013 5.06656C24.1893 5.06656 24.3696 4.99188 24.5025 4.85895C24.6355 4.72603 24.7102 4.54574 24.7102 4.35775V3.88751C25.7194 3.9717 26.7053 4.2372 27.6203 4.67125L27.3874 5.07628C27.3383 5.15696 27.3058 5.24665 27.2918 5.34008C27.2778 5.43351 27.2827 5.52879 27.3061 5.62032C27.3294 5.71185 27.3709 5.79778 27.4279 5.87307C27.485 5.94835 27.5565 6.01147 27.6383 6.05872C27.7201 6.10597 27.8105 6.13638 27.9043 6.14819C27.998 6.15999 28.0931 6.15293 28.1841 6.12744C28.2751 6.10195 28.36 6.05853 28.434 5.99974C28.5079 5.94094 28.5693 5.86796 28.6147 5.78509L28.8488 5.38005C29.68 5.95934 30.402 6.68134 30.9813 7.51255L30.5762 7.74666C30.4413 7.82518 30.336 7.94595 30.2766 8.0903C30.2172 8.23466 30.207 8.39457 30.2475 8.54531C30.2881 8.69605 30.3772 8.82924 30.501 8.92428C30.6249 9.01932 30.7766 9.07093 30.9327 9.07112C31.0566 9.06991 31.178 9.03641 31.2851 8.97391L31.6901 8.74102C32.1218 9.65557 32.3854 10.6404 32.4682 11.6483H31.9979C31.8099 11.6483 31.6296 11.723 31.4967 11.856C31.3638 11.9889 31.2891 12.1692 31.2891 12.3572C31.2891 12.5451 31.3638 12.7254 31.4967 12.8584C31.6296 12.9913 31.8099 13.066 31.9979 13.066H32.4682C32.384 14.0752 32.1185 15.0611 31.6844 15.9761L31.2794 15.7432C31.117 15.6544 30.9262 15.6326 30.7479 15.6826C30.5697 15.7325 30.418 15.8503 30.3254 16.0106C30.2328 16.1709 30.2067 16.3611 30.2525 16.5405C30.2983 16.7199 30.4124 16.8742 30.5706 16.9705L30.9756 17.2046C30.1946 18.3333 29.1516 19.2557 27.9359 19.8929C26.7203 20.5301 25.3682 20.8629 23.9957 20.8629C22.6231 20.8629 21.2711 20.5301 20.0554 19.8929C18.8397 19.2557 17.7967 18.3333 17.0157 17.2046H17.0186Z" fill="white"/>
<path d="M23.0363 14.0234C23.4784 14.2781 24.0034 14.347 24.4962 14.215C24.989 14.0829 25.4092 13.7607 25.6646 13.3191C26.0267 12.6908 26.725 9.57088 26.9303 8.62958C26.9625 8.48265 26.9471 8.3293 26.8864 8.19171C26.8256 8.05411 26.7227 7.93941 26.5924 7.86418C26.4622 7.78896 26.3114 7.75712 26.1618 7.77326C26.0123 7.7894 25.8718 7.8527 25.7606 7.95399C25.0481 8.60204 22.6949 10.7669 22.332 11.3968C22.0781 11.8387 22.0097 12.3633 22.1417 12.8556C22.2737 13.3478 22.5954 13.7678 23.0363 14.0234ZM23.5588 12.106C24.0107 11.5676 24.4987 11.0605 25.0194 10.5883C24.8708 11.2757 24.6759 11.9523 24.4361 12.6135C24.3682 12.7281 24.2579 12.8113 24.129 12.8451C24.0002 12.8789 23.8632 12.8605 23.7478 12.794C23.6324 12.7275 23.5478 12.6182 23.5125 12.4898C23.4771 12.3614 23.4937 12.2242 23.5588 12.108V12.106Z" fill="white"/>
<path d="M27.1374 17.1425C27.1373 16.9546 27.0626 16.7743 26.9297 16.6414C26.7968 16.5085 26.6165 16.4338 26.4286 16.4337H21.5682C21.3802 16.4337 21.1999 16.5084 21.067 16.6413C20.9341 16.7742 20.8594 16.9545 20.8594 17.1425C20.8594 17.3305 20.9341 17.5108 21.067 17.6437C21.1999 17.7767 21.3802 17.8513 21.5682 17.8513H26.4286C26.6165 17.8512 26.7968 17.7765 26.9297 17.6436C27.0626 17.5107 27.1373 17.3305 27.1374 17.1425Z" fill="white"/>
<path d="M47.2876 32.6087H44.8574C44.6695 32.6088 44.4892 32.6836 44.3563 32.8165C44.2234 32.9494 44.1487 33.1296 44.1486 33.3176V34.4314H32.6862C32.5257 33.7411 32.1365 33.1254 31.5818 32.6842C31.0272 32.243 30.3397 32.0023 29.631 32.0012H27.1372V27.1408H28.2511C28.439 27.1407 28.6192 27.066 28.7521 26.9331C28.885 26.8002 28.9598 26.6199 28.9599 26.432V23.6668C31.5573 22.5277 33.6836 20.5295 34.9817 18.0078C36.2799 15.4862 36.6708 12.5946 36.0889 9.81875C35.5069 7.04289 33.9876 4.55182 31.7859 2.76387C29.5842 0.975921 26.8344 0 23.9982 0C21.162 0 18.4122 0.975921 16.2105 2.76387C14.0089 4.55182 12.4895 7.04289 11.9075 9.81875C11.3256 12.5946 11.7165 15.4862 13.0147 18.0078C14.3129 20.5295 16.4392 22.5277 19.0366 23.6668V26.432C19.0367 26.6199 19.1114 26.8002 19.2443 26.9331C19.3772 27.066 19.5574 27.1407 19.7454 27.1408H20.8592V32.0012H18.3683C17.6596 32.0023 16.9721 32.243 16.4174 32.6842C15.8628 33.1254 15.4736 33.7411 15.3131 34.4314H3.84781V33.3176C3.84771 33.1296 3.773 32.9494 3.64009 32.8165C3.50719 32.6836 3.32696 32.6088 3.13901 32.6087H0.708808C0.520853 32.6088 0.340628 32.6836 0.207723 32.8165C0.0748195 32.9494 0.000107311 33.1296 0 33.3176V46.6836C0.000107311 46.8716 0.0748195 47.0518 0.207723 47.1847C0.340628 47.3176 0.520853 47.3923 0.708808 47.3924H3.13901C3.32696 47.3923 3.50719 47.3176 3.64009 47.1847C3.773 47.0518 3.84771 46.8716 3.84781 46.6836V45.5698H15.3103C15.4708 46.2601 15.86 46.8758 16.4146 47.317C16.9692 47.7582 17.6567 47.9989 18.3654 48H29.6282C30.3369 47.9989 31.0244 47.7582 31.579 47.317C32.1336 46.8758 32.5228 46.2601 32.6833 45.5698H44.1458V46.6836C44.1459 46.8716 44.2206 47.0518 44.3535 47.1847C44.4864 47.3176 44.6666 47.3923 44.8546 47.3924H47.2848C47.4727 47.3923 47.653 47.3176 47.7859 47.1847C47.9188 47.0518 47.9935 46.8716 47.9936 46.6836V33.3176C47.9935 33.1301 47.9192 32.9503 47.7869 32.8175C47.6546 32.6846 47.4751 32.6096 47.2876 32.6087ZM13.0623 12.3571C13.0623 10.1942 13.7037 8.07983 14.9053 6.28143C16.107 4.48303 17.815 3.08135 19.8132 2.25364C21.8115 1.42593 24.0103 1.20936 26.1317 1.63133C28.2531 2.05329 30.2016 3.09483 31.7311 4.62424C33.2605 6.15366 34.302 8.10225 34.724 10.2236C35.1459 12.345 34.9294 14.5438 34.1017 16.5421C33.274 18.5403 31.8723 20.2483 30.0739 21.45C28.2755 22.6516 26.1611 23.293 23.9982 23.293C21.0988 23.2898 18.3191 22.1366 16.2689 20.0864C14.2187 18.0362 13.0655 15.2565 13.0623 12.3571ZM20.4542 24.1901C22.7659 24.8841 25.2305 24.8841 27.5423 24.1901V25.7232H20.4542V24.1901ZM22.2768 27.1408H25.7196V32.0012H22.2768V27.1408ZM2.4302 45.9748H1.41762V34.0264H2.4302V45.9748ZM3.84781 35.849H15.2292V44.1522H3.84781V35.849ZM31.3496 44.861C31.349 45.3174 31.1675 45.7549 30.8448 46.0776C30.5221 46.4003 30.0846 46.5818 29.6282 46.5824H18.3683C17.9119 46.5818 17.4743 46.4003 17.1516 46.0776C16.8289 45.7549 16.6474 45.3174 16.6469 44.861V35.1402C16.6474 34.6838 16.8289 34.2463 17.1516 33.9236C17.4743 33.6009 17.9119 33.4193 18.3683 33.4188H29.6282C30.0846 33.4193 30.5221 33.6009 30.8448 33.9236C31.1675 34.2463 31.349 34.6838 31.3496 35.1402V44.861ZM32.7672 44.1522V35.849H44.1486V44.1522H32.7672ZM46.5788 45.9748H45.5662V34.0264H46.5788V45.9748Z" fill="white"/>
<path d="M29.6282 39.8313C29.4403 39.8313 29.26 39.906 29.127 40.0389C28.9941 40.1718 28.9194 40.3521 28.9194 40.5401V43.1728C28.9194 43.3608 28.9941 43.5411 29.127 43.674C29.26 43.8069 29.4403 43.8816 29.6282 43.8816C29.8162 43.8816 29.9965 43.8069 30.1294 43.674C30.2624 43.5411 30.3371 43.3608 30.3371 43.1728V40.5401C30.3369 40.3522 30.2622 40.1719 30.1293 40.039C29.9964 39.9061 29.8162 39.8314 29.6282 39.8313Z" fill="white"/>
</svg>
