<svg width="48" height="48" viewBox="0 0 48 48" fill="none" xmlns="http://www.w3.org/2000/svg">
<path d="M47.545 45.3886L35.1522 33.1938C38.3975 29.6679 40.3915 25.0048 40.3915 19.8736C40.3899 8.89703 31.3488 0 20.1952 0C9.0416 0 0.000488281 8.89703 0.000488281 19.8736C0.000488281 30.8502 9.0416 39.7473 20.1952 39.7473C25.0144 39.7473 29.4344 38.0804 32.9062 35.3092L45.3471 47.5521C45.9533 48.1493 46.9374 48.1493 47.5436 47.5521C48.1512 46.955 48.1512 45.9858 47.545 45.3886ZM20.1952 36.6896C10.758 36.6896 3.10773 29.1609 3.10773 19.8736C3.10773 10.5864 10.758 3.05768 20.1952 3.05768C29.6325 3.05768 37.2827 10.5864 37.2827 19.8736C37.2827 29.1609 29.6325 36.6896 20.1952 36.6896Z" fill="white"/>
</svg>
