<svg xmlns="http://www.w3.org/2000/svg"  viewBox="0 0 100 100" width="100px" height="100px"><path d="M23.5,93C16.607,93,11,87.393,11,80.5v-57C11,16.607,16.607,11,23.5,11h57C87.393,11,93,16.607,93,23.5v57 C93,87.393,87.393,93,80.5,93H23.5z" opacity=".35"/><path fill="#f2f2f2" d="M21.5,91C14.607,91,9,85.393,9,78.5v-57C9,14.607,14.607,9,21.5,9h57C85.393,9,91,14.607,91,21.5v57 C91,85.393,85.393,91,78.5,91H21.5z"/><path fill="#2785bd" d="M15.5,78.5v-57c0-3.314,2.686-6,6-6h57c3.314,0,6,2.686,6,6v57c0,3.314-2.686,6-6,6h-57 C18.186,84.5,15.5,81.814,15.5,78.5z"/><path fill="#40396e" d="M78.5,86h-57c-4.136,0-7.5-3.364-7.5-7.5v-57c0-4.136,3.364-7.5,7.5-7.5h57 c4.136,0,7.5,3.364,7.5,7.5v57C86,82.636,82.636,86,78.5,86z M21.5,17c-2.481,0-4.5,2.019-4.5,4.5v57c0,2.481,2.019,4.5,4.5,4.5h57 c2.481,0,4.5-2.019,4.5-4.5v-57c0-2.481-2.019-4.5-4.5-4.5H21.5z"/><g><path fill="#f2f2f2" d="M73.876,39.943c0.092-0.282,0.136-0.543,0.124-0.777C73.97,38.491,73.472,38,72.3,38h-5.439 c-1.302,0-1.903,0.758-2.253,1.519c0,0-3.214,6.368-6.919,10.567c-1.201,1.215-1.812,1.185-2.462,1.185 c-0.349,0-1.229-0.406-1.229-1.519v-9.83c0-1.316-0.341-1.922-1.442-1.922h-9.319c-0.814,0-1.238,0.597-1.238,1.197 c0,1.245,1.796,1.544,2,5.033v6.763c0,1.643-0.306,1.941-0.966,1.941c-1.78,0-5.285-5.6-7.631-12.94 C34.894,38.549,34.386,38,33.064,38h-5.287c-1.526,0-1.78,0.698-1.78,1.445c0,1.346,1.2,8.622,7.751,16.989 C38.498,62.5,44.757,66,50.298,66c3.356,0,3.7-0.797,3.7-2.042V58.41c0.002-1.495,0.368-1.743,1.436-1.743 c0.762,0,2.316,0.467,5.317,3.733c3.46,3.767,4.088,5.6,6.073,5.6h5.237c1.216,0,1.914-0.476,1.942-1.4 c0.006-0.235-0.03-0.498-0.112-0.791c-0.388-1.075-2.168-3.703-4.388-6.209c-1.23-1.387-2.444-2.761-3.002-3.507 c-0.374-0.487-0.516-0.831-0.498-1.159c0.018-0.345,0.21-0.674,0.498-1.133C66.447,51.8,73.216,42.932,73.876,39.943z"/></g></svg>