<svg width="52" height="52" viewBox="0 0 52 52" fill="none" xmlns="http://www.w3.org/2000/svg">
<path d="M7.34988 44.1651L5.46082 46.0541C5.12523 46.3906 4.93677 46.8464 4.93677 47.3215C4.93677 47.7967 5.12523 48.2525 5.46082 48.5889C5.79726 48.9245 6.25306 49.113 6.72827 49.113C7.20347 49.113 7.65927 48.9245 7.99572 48.5889L9.88478 46.6999C10.2209 46.3637 10.4098 45.9078 10.4098 45.4325C10.4098 44.9571 10.221 44.5012 9.88483 44.165C9.5487 43.8289 9.09279 43.64 8.61742 43.64C8.14204 43.64 7.68613 43.8288 7.34998 44.165L7.34988 44.1651ZM9.02292 45.8382L7.13386 47.7273C7.08078 47.7814 7.0175 47.8245 6.94767 47.8541C6.87784 47.8836 6.80284 47.899 6.72702 47.8994C6.6512 47.8998 6.57606 47.8851 6.50594 47.8563C6.43581 47.8274 6.3721 47.785 6.31848 47.7314C6.26487 47.6778 6.22241 47.6141 6.19356 47.5439C6.16472 47.4738 6.15005 47.3987 6.15042 47.3229C6.1508 47.247 6.16619 47.172 6.19572 47.1022C6.22525 47.0324 6.26833 46.9691 6.32247 46.916L8.21154 45.0269C8.26481 44.9737 8.32805 44.9314 8.39765 44.9026C8.46725 44.8738 8.54184 44.8589 8.61718 44.8589C8.69251 44.8589 8.76711 44.8738 8.83671 44.9026C8.90631 44.9314 8.96955 44.9737 9.02282 45.0269C9.07609 45.0802 9.11834 45.1434 9.14717 45.213C9.176 45.2826 9.19084 45.3572 9.19084 45.4326C9.19084 45.5079 9.176 45.5825 9.14717 45.6521C9.11834 45.7217 9.07609 45.7849 9.02282 45.8382H9.02292Z" fill="white"/>
<path d="M47.0437 2.91865C46.393 2.26784 45.6204 1.75158 44.7701 1.39936C43.9199 1.04713 43.0085 0.865845 42.0882 0.865845C41.1679 0.865845 40.2565 1.04713 39.4062 1.39936C38.556 1.75158 37.7834 2.26784 37.1327 2.91865L33.0875 6.96389L32.8396 6.71597C32.4697 6.34608 32.0306 6.05267 31.5473 5.85248C31.064 5.6523 30.546 5.54926 30.0229 5.54926C28.9665 5.54926 27.9533 5.96894 27.2062 6.71597C26.4592 7.463 26.0395 8.47619 26.0395 9.53266C26.0395 10.5891 26.4592 11.6023 27.2062 12.3493L27.4541 12.5973L26.8983 13.153L26.1723 12.427C26.0581 12.3128 25.9031 12.2486 25.7415 12.2486C25.5799 12.2486 25.425 12.3128 25.3107 12.427L23.0357 14.702C22.9214 14.8163 22.8572 14.9713 22.8572 15.1329C22.8572 15.2945 22.9214 15.4495 23.0357 15.5638L23.7617 16.2898L11.7508 28.3008C11.6942 28.3574 11.6493 28.4246 11.6186 28.4986C11.588 28.5725 11.5722 28.6517 11.5722 28.7318C11.5722 28.8118 11.588 28.8911 11.6186 28.965C11.6493 29.0389 11.6942 29.1061 11.7508 29.1627L13.617 31.0289C13.6736 31.0855 13.7407 31.1304 13.8147 31.161C13.8886 31.1917 13.9679 31.2074 14.0479 31.2074C14.1279 31.2074 14.2072 31.1917 14.2811 31.161C14.3551 31.1304 14.4223 31.0855 14.4788 31.0289L23.648 21.8598L24.2768 24.5339L3.98631 44.8238C3.31102 45.5207 2.93682 46.4552 2.94445 47.4256C2.95209 48.3959 3.34095 49.3244 4.02713 50.0106C4.7133 50.6967 5.64176 51.0856 6.61212 51.0932C7.58249 51.1009 8.51695 50.7267 9.21384 50.0514L40.929 18.3363C41.0433 18.3985 41.1748 18.4218 41.3035 18.4027C41.4322 18.3837 41.5513 18.3233 41.6427 18.2307L44.6944 15.1791C44.8087 15.0648 44.8729 14.9098 44.8729 14.7482C44.8729 14.5866 44.8087 14.4316 44.6944 14.3173L40.1632 9.78611C40.0489 9.67187 39.8939 9.60769 39.7324 9.60769C39.5708 9.60769 39.4158 9.67187 39.3015 9.78611L37.6054 11.4822L37.4036 11.2805L40.0244 8.66018L40.1785 8.50601C40.3096 8.37519 40.4872 8.30171 40.6724 8.30171C40.8576 8.30171 41.0352 8.37519 41.1663 8.50601L45.8363 13.176C45.9505 13.2902 46.1055 13.3544 46.2671 13.3544C46.4287 13.3544 46.5836 13.2902 46.6979 13.176L47.0432 12.8306C47.6941 12.1799 48.2104 11.4073 48.5626 10.557C48.9148 9.70672 49.0961 8.79537 49.0961 7.875C49.0961 6.95464 48.9148 6.04328 48.5626 5.19299C48.2104 4.34269 47.6941 3.57011 47.0432 2.91936L47.0437 2.91865ZM25.7413 13.7197L29.0594 17.0379L27.6463 18.4509L24.3283 15.1329L25.7413 13.7197ZM30.3522 16.6069L29.6264 15.8811L30.1821 15.3253L31.8336 16.9768L28.1509 20.6596L27.3147 19.8234C27.4317 19.8996 27.5713 19.9333 27.7102 19.9187C27.849 19.9042 27.9787 19.8424 28.0773 19.7436L30.3523 17.4686C30.4665 17.3543 30.5307 17.1993 30.5306 17.0377C30.5306 16.8761 30.4663 16.7212 30.352 16.6069H30.3522ZM27.7601 14.0148L28.3158 13.459L29.3203 14.4635L28.7645 15.0192L27.7601 14.0148ZM14.0475 29.7366L13.0432 28.7322L14.0156 27.7592L15.3352 28.4485L14.0475 29.7366ZM16.2385 27.5457L14.9189 26.8564L16.0649 25.7104L17.3844 26.3997L16.2385 27.5457ZM18.2877 25.4966L16.9681 24.8072L18.1142 23.6612L19.4338 24.3506L18.2877 25.4966ZM20.3369 23.4474L19.0174 22.758L20.1633 21.612L21.4829 22.3013L20.3369 23.4474ZM22.3862 21.3981L21.0664 20.7086L22.2123 19.5627L23.532 20.2516L22.3862 21.3981ZM23.1156 18.6591L24.6233 17.1514L25.6278 18.1559L24.4352 19.3484L23.1156 18.6591ZM39.7324 11.0788L43.4018 14.7481L41.2119 16.938L37.5425 13.2687L39.7324 11.0788ZM40.0461 17.4957L8.35208 49.1896C7.88435 49.6391 7.259 49.8873 6.61032 49.8808C5.96164 49.8744 5.34135 49.6138 4.88264 49.1551C4.42393 48.6964 4.16338 48.0761 4.15694 47.4275C4.15049 46.7788 4.39867 46.1534 4.84817 45.6857L25.3779 25.1558C25.4513 25.0824 25.5048 24.9915 25.5332 24.8917C25.5617 24.7919 25.5641 24.6864 25.5404 24.5854L24.6612 20.8461L25.6375 19.8698L27.7195 21.9519C27.8338 22.0661 27.9888 22.1303 28.1504 22.1303C28.312 22.1303 28.4669 22.0661 28.5812 21.9519L33.126 17.4079C33.2403 17.2936 33.3045 17.1386 33.3045 16.977C33.3045 16.8154 33.2403 16.6604 33.126 16.5461L28.0677 11.4878C27.811 11.231 27.6073 10.9262 27.4683 10.5908C27.3294 10.2553 27.2579 9.8958 27.2579 9.53271C27.2579 8.79941 27.5492 8.09615 28.0677 7.57763C28.5862 7.05911 29.2895 6.76781 30.0228 6.76781C30.7561 6.76781 31.4593 7.05911 31.9779 7.57763L36.7441 12.3438L36.2502 12.8377C36.1359 12.9519 36.0717 13.1069 36.0717 13.2685C36.0717 13.4301 36.1359 13.5851 36.2502 13.6994L40.0461 17.4957ZM46.2663 11.8819L42.0281 7.64375C41.8588 7.47485 41.6593 7.33938 41.4398 7.2444L42.0282 6.65605C42.093 6.59119 42.17 6.53974 42.2547 6.50464C42.3395 6.46953 42.4303 6.45147 42.522 6.45147C42.6137 6.45147 42.7046 6.46953 42.7893 6.50464C42.874 6.53974 42.951 6.59119 43.0159 6.65605L47.1132 10.7533C46.8778 11.1625 46.5934 11.5415 46.2663 11.8819ZM43.8776 5.79439C43.6996 5.61635 43.4883 5.47511 43.2557 5.37875C43.0231 5.28239 42.7738 5.23279 42.522 5.23279C42.2703 5.23279 42.021 5.28239 41.7884 5.37875C41.5558 5.47511 41.3444 5.61635 41.1664 5.79439L36.5422 10.4186L33.9491 7.82564L37.9945 3.78051C38.9074 2.86952 40.0982 2.28924 41.3782 2.13163C42.6582 1.97402 43.9542 2.24809 45.0608 2.91042C46.1674 3.57275 47.0213 4.58545 47.4872 5.78803C47.9531 6.9906 48.0043 8.31427 47.6328 9.54926L43.8776 5.79439Z" fill="white"/>
</svg>
