<!-- icon666.com - MILLIONS vector ICONS FREE --><svg clip-rule="evenodd" fill-rule="evenodd" image-rendering="optimizeQuality" shape-rendering="geometricPrecision" text-rendering="geometricPrecision" viewBox="0 0 43.3492 43.3492" xmlns="http://www.w3.org/2000/svg"><g id="Layer_x0020_1"><g id="_215306992"><g><path id="_215307088" d="m36.949 39.2429c-.1213 0-.2417-.046-.3344-.1385l-7.9316-7.9318c-.1854-.1848-.1855-.4842-.0001-.669.1844-.185.484-.1848.6693 0l7.932 7.9315c.1843.1848.1841.4846-.0002.6693-.0926.0924-.2139.1387-.335.1385zm-1.8731 1.8723c-.1202 0-.2416-.0462-.3343-.1387l-7.9317-7.9312c-.1843-.1848-.1844-.4843-.0001-.6691.1855-.1851.485-.1849.6694 0l7.9318 7.9312c.1843.1847.1843.4844-.0001.6691-.0926.0923-.2139.1387-.335.1387z"></path><path id="_215307472" d="m12.5308 14.8241c-.1214 0-.2427-.0461-.3354-.1385l-7.9317-7.9317c-.1844-.1849-.1844-.4843 0-.6691.1854-.185.485-.1849.6693 0l7.9318 7.9317c.1843.1845.1843.4843 0 .6691-.0925.0923-.2139.1386-.334.1385zm-1.8732 1.8727c-.1213 0-.2425-.0463-.3342-.1386l-7.9318-7.9318c-.1852-.1847-.1853-.4844 0-.6691.1846-.1851.4841-.1849.6694 0l7.9318 7.9316c.1843.1848.1843.4844-.0001.6693-.0924.0922-.2139.1386-.3351.1386z"></path><path id="_215307448" d="m36.0341 21.9256h.0011zm-1.9952.6175 1.4766.0918.0463-.7386c.2356-3.7926-1.184-7.5223-3.8949-10.2327-2.71-2.7105-6.4402-4.1302-10.2326-3.8943l-.7382.0457.0916 1.477.7384-.0459c3.3694-.2091 6.6846 1.0532 9.0949 3.4634s3.673 5.7253 3.4641 9.0953zm1.9202 1.0666c-.0098 0-.0198-.0003-.0296-.0009l-2.422-.1506c-.2602-.0162-.4585-.2406-.4428-.5013l.075-1.211c.1932-3.099-.9691-6.1488-3.1881-8.3671-2.2179-2.2185-5.2691-3.3807-8.3665-3.188l-1.2104.0752c-.1262.0078-.2495-.0346-.3432-.1176-.0936-.0832-.1508-.2001-.1587-.3254l-.1507-2.4216c-.008-.1253.0343-.2484.1172-.3424.084-.0941.2001-.1513.3253-.1591l1.2117-.0752c4.0624-.2513 8.0578 1.2676 10.96 4.1697 2.9021 2.9021 4.4222 6.8972 4.1699 10.9606l-.0749 1.2107c-.0078.1253-.0651.2425-.1597.3255-.0867.0764-.1982.1186-.3125.1185zm-15.6102-7.7192.7384.0486c1.6396.1073 3.1802.8052 4.3395 1.9646 1.1613 1.161 1.8602 2.7016 1.9676 4.3379l.0485.7382 1.4757-.0969-.0484-.7384c-.13-1.9947-.9819-3.8722-2.3965-5.2872-1.4136-1.4133-3.2926-2.2638-5.2898-2.3949l-.7383-.0484zm6.6524 8.0655c-.1145 0-.2259-.0413-.3127-.1172-.0934-.0829-.1518-.1996-.1597-.3249l-.0788-1.2106c-.0927-1.4069-.694-2.7318-1.6917-3.7305-.9975-.997-2.3235-1.597-3.7332-1.6894l-1.2104-.0795c-.2604-.0171-.4586-.2423-.4408-.503l.1587-2.4211c.008-.1253.0651-.242.1597-.3248.0947-.0828.2168-.1253.3431-.1164l1.2106.0793c2.2269.1461 4.3207 1.0945 5.897 2.6703 1.5774 1.5772 2.5256 3.6706 2.6715 5.8945.0001-.0001 0 0 0 0l.0799 1.2105c.0169.2608-.1805.4861-.4417.5032l-2.4211.1587c-.0098.0006-.0207.0011-.0304.0009zm-5.839-20.8567h.0011zm19.4241 19.8727 1.463.2252.1125-.7311c.9107-5.9111-1.0146-11.7483-5.2821-16.0153-4.2664-4.2671-10.1035-6.192-16.0153-5.2816l-.7314.1126.2258 1.4624.7315-.1127c5.4407-.8378 10.815.9353 14.7445 4.8649 3.9295 3.9294 5.7018 9.3037 4.8639 14.7445zm1.8582 1.2382c-.0235 0-.0483-.0018-.0719-.0054l-2.3974-.3695c-.2584-.0399-.4358-.2813-.3964-.5395l.1855-1.1992c.7916-5.1395-.8844-10.217-4.5989-13.9311-3.7144-3.7141-8.7923-5.3902-13.9313-4.5985l.0002-.0002-1.1989.1848c-.2581.0397-.5008-.1373-.5403-.3956l-.3686-2.398c-.0196-.124.0118-.2504.0857-.3516.074-.1014.1853-.1688.3096-.1879l1.1988-.1847c3.1633-.4873 6.2853-.2122 9.2782.8174 2.8117.967 5.4229 2.6028 7.5502 4.7304 2.1274 2.1275 3.7638 4.7383 4.7309 7.5501 1.0293 2.9933 1.3042 6.1152.8172 9.2785l-.1843 1.1987c-.0195.124-.0868.2356-.1883.3098-.0816.0598-.1794.0916-.28.0915z"></path></g><path id="_215306968" d="m7.2713 5.79c-.8861 0-1.7162.3424-2.3383.9639l-2.6713 2.6734c-1.7046 1.7738-1.7401 5.0636-.0909 9.2568 1.6976 4.3186 4.9734 9.0382 9.2242 13.2891 4.2508 4.2507 8.9707 7.5268 13.2895 9.2248 4.1926 1.6484 7.4832 1.6139 9.2636-.0975l2.6666-2.6654c1.2894-1.2891 1.2893-3.3866-.0001-4.6758l-2.5865-2.5867c-1.2896-1.2891-3.3874-1.289-4.6759.0002l-2.6723 2.6723c-.1459.146-.3699.1805-.5522.0855-7.0899-3.6805-13.0175-9.6074-16.6906-16.6891-.0946-.1832-.0601-.4066.0858-.5524l2.6725-2.6726c1.2896-1.2894 1.2894-3.3869 0-4.6761l-2.5867-2.5865c-.621-.6217-1.4511-.9639-2.3374-.9639zm22.8519 37.5592c-1.6777 0-3.6288-.4228-5.7848-1.2704-4.4368-1.7446-9.2714-5.0957-13.6128-9.4365-4.3404-4.3407-7.6912-9.1749-9.4361-13.6121-1.7911-4.5573-1.6867-8.2028.2958-10.2652l2.6784-2.6802c.8004-.8005 1.8681-1.2411 3.0076-1.2411 1.1388-.0001 2.2072.4408 3.0067 1.2411l2.5868 2.5862c1.6582 1.6582 1.6581 4.3564 0 6.0146l-2.4261 2.4264c3.5411 6.6727 9.1384 12.2701 15.8181 15.8178l2.4262-2.4262c.8005-.8002 1.868-1.2411 3.0065-1.2411 1.1397-.0001 2.2073.4409 3.0077 1.2411l2.587 2.5865c1.6579 1.658 1.6579 4.3562-.0002 6.0143l-2.6744 2.672c-1.0893 1.048-2.6184 1.573-4.4864 1.5728z"></path></g></g></svg>